# xmcd CD database file
#
# Track frame offsets:
#	150
#	16439
#	31716
#	46725
#	64862
#	78567
#	92646
#	111185
#	126488
#	139767
#	160694
#	178845
#	194788
#	207597
#	224550
#
# Disc length: 3190 seconds
#
# Revision: 0
# Processed by: cddbd v1.5.2PL0 Copyright (c) Steve Scherf et al.
# Submitted via: CDex 1.51
#
DISCID=df0c740f
DTITLE=Jazz Band of Shanghai Paramount - Jazz of Paramount_Vol 2
DYEAR=1990
DGENRE=Jazz
TTITLE0=Rum and Coca Cola
TTITLE1=Lady be good
TTITLE2=Moonlight on the Calorado
TTITLE3=Entertainer
TTITLE4=Sentimental journey
TTITLE5=New York---all of me
TTITLE6=Besame Mucho
TTITLE7=Tennessee waltz
TTITLE8=Amor Amor
TTITLE9=Taboo
TTITLE10=La Cumparsita
TTITLE11=Sleepy Lagoon
TTITLE12=Beer bar Polka
TTITLE13=The magic monlight
TTITLE14=In the mood
EXTD=YEAR: 1990
EXTT0=
EXTT1=
EXTT2=
EXTT3=
EXTT4=
EXTT5=
EXTT6=
EXTT7=
EXTT8=
EXTT9=
EXTT10=
EXTT11=
EXTT12=
EXTT13=
EXTT14=
PLAYORDER=
